name analog
datacolumns 19
datarows 47
range 0.0 0.023
endheader
time	ground_force_vx	ground_force_vy	ground_force_vz	ground_force_px	ground_force_py	ground_force_pz	l_ground_force_vx	l_ground_force_vy	l_ground_force_vz	l_ground_force_px	l_ground_force_py	l_ground_force_pz	ground_torque_x	ground_torque_y	ground_torque_z	l_ground_torque_x	l_ground_torque_y	l_ground_torque_z
0.0	-0.0	-0.0	-0.0	4.357177257537842	0.2438495010137558	-93.2208480834961	-5.435197830200195	0.8594814538955688	-781.0709228515625	-0.0	-0.0	-0.0	-0.0	-0.0	-0.0	219021.203125	-13377.9248046875	-5049.72265625
0.0005	-0.0	-0.0	-0.0	4.521913051605225	-0.0092660179361701	-94.01929473876952	-4.809154510498047	0.5112403631210327	-783.8453369140625	-0.0	-0.0	-0.0	-0.0	-0.0	-0.0	219449.0625	-13271.923828125	-5160.1259765625
0.001	-0.0	-0.0	-0.0	4.108278751373291	0.1461227834224701	-93.90947723388672	-5.1591796875	0.6089898943901062	-785.4813232421875	-0.0	-0.0	-0.0	-0.0	-0.0	-0.0	220014.65625	-13232.69140625	-5163.50244140625
0.0015	-0.0	-0.0	-0.0	4.028032779693604	-0.3520057797431946	-93.239501953125	-5.411357879638672	0.5253738164901733	-786.2714233398438	-0.0	-0.0	-0.0	-0.0	-0.0	-0.0	220176.03125	-12912.4072265625	-5305.9267578125
0.002	-0.0	-0.0	-0.0	3.666553258895874	-0.1782608032226562	-92.16230010986328	-5.854911804199219	0.4371102750301361	-786.6741333007812	-0.0	-0.0	-0.0	-0.0	-0.0	-0.0	220438.453125	-13302.3681640625	-5052.98291015625
0.0025	-0.0	-0.0	-0.0	3.6885673999786377	-0.552444577217102	-93.134521484375	-5.650630950927734	0.785981297492981	-786.69140625	-0.0	-0.0	-0.0	-0.0	-0.0	-0.0	220557.84375	-13082.1064453125	-5278.03076171875
0.003	-0.0	-0.0	-0.0	4.562768459320068	-1.1543550491333008	-94.24744415283205	-5.584377765655518	0.6094872355461121	-789.0653076171875	-0.0	-0.0	-0.0	-0.0	-0.0	-0.0	220631.953125	-12961.5458984375	-5482.8330078125
0.0035	-0.0	-0.0	-0.0	4.456223487854004	-1.3412539958953855	-91.55875396728516	-5.956701278686523	1.0338174104690552	-789.7638549804688	-0.0	-0.0	-0.0	-0.0	-0.0	-0.0	220935.796875	-12865.638671875	-5230.67578125
0.004	-0.0	-0.0	-0.0	4.647432804107666	-1.4218471050262451	-92.19676208496094	-5.9522247314453125	0.980103075504303	-789.8486938476562	-0.0	-0.0	-0.0	-0.0	-0.0	-0.0	221328.5	-12419.7744140625	-5312.40869140625
0.0045000000000000005	-0.0	-0.0	-0.0	5.412667274475098	-1.4385782480239868	-91.77728271484376	-6.230885982513428	0.639289915561676	-790.495849609375	-0.0	-0.0	-0.0	-0.0	-0.0	-0.0	221725.171875	-12373.779296875	-5461.0390625
0.005	-0.0	-0.0	-0.0	4.983410358428955	-1.863493800163269	-89.0176773071289	-6.568782806396484	1.1565146446228027	-791.892333984375	-0.0	-0.0	-0.0	-0.0	-0.0	-0.0	221725.84375	-12375.5087890625	-5458.36328125
0.0055	-0.0	-0.0	-0.0	5.255318641662598	-1.3733789920806885	-90.38198852539062	-6.9153313636779785	0.8995838165283203	-790.3565673828125	-0.0	-0.0	-0.0	-0.0	-0.0	-0.0	221804.921875	-12106.9443359375	-5464.2470703125
0.006	-0.0	-0.0	-0.0	5.34464693069458	-1.6402418613433838	-89.08036041259766	-7.016254901885986	0.6303524971008301	-792.5582885742188	-0.0	-0.0	-0.0	-0.0	-0.0	-0.0	221758.328125	-11815.7919921875	-5638.2880859375
0.006500000000000001	-0.0	-0.0	-0.0	5.441841125488281	-2.313443899154663	-88.63252258300781	-7.709818363189697	0.6945967078208923	-792.5111083984375	-0.0	-0.0	-0.0	-0.0	-0.0	-0.0	221295.53125	-11737.8642578125	-5816.77685546875
0.007	-0.0	-0.0	-0.0	5.903392791748047	-2.476294755935669	-87.29680633544922	-7.99577522277832	0.5260124802589417	-791.8449096679688	-0.0	-0.0	-0.0	-0.0	-0.0	-0.0	221553.640625	-11351.900390625	-5760.376953125
0.0075	-0.0	-0.0	-0.0	6.147859573364258	-2.770701169967652	-86.14555358886719	-8.415844917297363	0.5260539650917053	-793.2265014648438	-0.0	-0.0	-0.0	-0.0	-0.0	-0.0	221365.3125	-11637.5546875	-5785.1318359375
0.008	-0.0	-0.0	-0.0	5.995973587036133	-3.127105236053467	-87.88204193115234	-8.43519401550293	-0.0692327097058296	-789.8262939453125	-0.0	-0.0	-0.0	-0.0	-0.0	-0.0	221252.328125	-11257.8515625	-5852.39697265625
0.0085	-0.0	-0.0	-0.0	6.597879409790039	-3.46500015258789	-85.45490264892578	-8.527514457702637	0.4191495478153229	-789.4613647460938	-0.0	-0.0	-0.0	-0.0	-0.0	-0.0	220645.0625	-10969.771484375	-5883.20947265625
0.009000000000000001	-0.0	-0.0	-0.0	6.776342391967773	-3.8362605571746826	-85.76482391357422	-8.7935209274292	-0.1655388176441192	-788.4136352539062	-0.0	-0.0	-0.0	-0.0	-0.0	-0.0	220478.546875	-10832.2265625	-5968.76806640625
0.0095	-0.0	-0.0	-0.0	7.4901018142700195	-4.374545574188232	-85.13053894042969	-9.048500061035156	-0.084694817662239	-787.7577514648438	-0.0	-0.0	-0.0	-0.0	-0.0	-0.0	220781.875	-10882.8212890625	-6031.9111328125
0.01	-0.0	-0.0	-0.0	7.32582950592041	-4.264181613922119	-82.9554443359375	-9.303878784179688	0.2649650573730469	-789.4882202148438	-0.0	-0.0	-0.0	-0.0	-0.0	-0.0	220587.328125	-10726.763671875	-6085.2802734375
0.0105	-0.0	-0.0	-0.0	7.600296974182129	-4.823474407196045	-84.6667251586914	-9.396257400512695	-0.1590058654546737	-790.1580200195312	-0.0	-0.0	-0.0	-0.0	-0.0	-0.0	220737.953125	-10617.6806640625	-6057.001953125
0.011	-0.0	-0.0	-0.0	8.015324592590332	-4.905574321746826	-83.43135070800781	-8.96672534942627	0.1939076483249664	-789.513671875	-0.0	-0.0	-0.0	-0.0	-0.0	-0.0	221296.640625	-10531.3232421875	-5886.765625
0.0115	-0.0	-0.0	-0.0	7.939735412597656	-5.011362075805664	-83.06352233886719	-9.048500061035156	0.5231412649154663	-790.17041015625	-0.0	-0.0	-0.0	-0.0	-0.0	-0.0	220908.46875	-10638.6474609375	-6117.09521484375
0.012	-0.0	-0.0	-0.0	7.606025695800781	-5.417144298553467	-82.64410400390625	-8.625153541564941	0.8865700364112854	-790.8946533203125	-0.0	-0.0	-0.0	-0.0	-0.0	-0.0	221269.796875	-10628.4951171875	-6088.16357421875
0.0125	-0.0	-0.0	-0.0	7.85052490234375	-4.816267967224121	-83.99290466308594	-8.614825248718262	0.8897739052772522	-792.561279296875	-0.0	-0.0	-0.0	-0.0	-0.0	-0.0	221530.09375	-10506.88671875	-6118.8955078125
0.013000000000000001	-0.0	-0.0	-0.0	8.287015914916992	-4.991302490234375	-83.00990295410156	-8.7791166305542	1.0598602294921875	-791.888671875	-0.0	-0.0	-0.0	-0.0	-0.0	-0.0	221610.53125	-10231.7587890625	-5998.1103515625
0.0135	-0.0	-0.0	-0.0	7.678327560424805	-4.440975189208984	-81.937744140625	-8.506707191467285	0.9021900296211244	-791.975830078125	-0.0	-0.0	-0.0	-0.0	-0.0	-0.0	222118.765625	-10387.0244140625	-6143.0908203125
0.014	-0.0	-0.0	-0.0	7.853577613830566	-3.832607269287109	-81.58456420898438	-8.345048904418945	1.14507794380188	-793.321533203125	-0.0	-0.0	-0.0	-0.0	-0.0	-0.0	221792.703125	-10602.33203125	-5998.82275390625
0.0145	-0.0	-0.0	-0.0	7.31225061416626	-3.5682244300842285	-81.52496337890625	-8.5162353515625	1.577540397644043	-795.9688110351562	-0.0	-0.0	-0.0	-0.0	-0.0	-0.0	221964.125	-10494.9443359375	-6031.5703125
0.015	-0.0	-0.0	-0.0	7.1368408203125	-3.226292371749878	-79.80704498291016	-8.51323413848877	1.260406255722046	-795.0418090820312	-0.0	-0.0	-0.0	-0.0	-0.0	-0.0	221794.15625	-10443.041015625	-6233.17578125
0.0155	-0.0	-0.0	-0.0	7.064891338348389	-3.1195640563964844	-80.55918884277344	-8.942133903503418	1.5897903442382812	-793.2493286132812	-0.0	-0.0	-0.0	-0.0	-0.0	-0.0	222102.390625	-10236.568359375	-6323.41259765625
0.016	-0.0	-0.0	-0.0	7.217545032501221	-3.1195640563964844	-79.81866455078125	-8.607847213745117	1.7779885530471802	-793.9251708984375	-0.0	-0.0	-0.0	-0.0	-0.0	-0.0	221883.546875	-10092.1083984375	-6179.67138671875
0.0165	-0.0	-0.0	-0.0	6.871969223022461	-3.203179359436035	-80.49224090576172	-8.790846824645996	1.760805606842041	-794.6690673828125	-0.0	-0.0	-0.0	-0.0	-0.0	-0.0	222021.359375	-9888.228515625	-6205.58935546875
0.017	-0.0	-0.0	-0.0	6.506931304931641	-3.03586483001709	-79.08002471923828	-9.217567443847656	1.2503658533096311	-793.9818115234375	-0.0	-0.0	-0.0	-0.0	-0.0	-0.0	222055.3125	-9848.2666015625	-6500.80078125
0.0175	-0.0	-0.0	-0.0	6.5097246170043945	-3.221895933151245	-77.67865753173828	-9.228631019592283	1.7583403587341309	-794.3092651367188	-0.0	-0.0	-0.0	-0.0	-0.0	-0.0	221957.25	-9906.966796875	-6501.63525390625
0.018000000000000002	-0.0	-0.0	-0.0	6.323609352111816	-3.290079355239868	-79.1020736694336	-9.400691986083984	0.8858568072319031	-793.9603881835938	-0.0	-0.0	-0.0	-0.0	-0.0	-0.0	221937.21875	-9682.142578125	-6530.7763671875
0.0185	-0.0	-0.0	-0.0	6.336488723754883	-3.740936756134033	-79.12236785888672	-9.56771469116211	1.0702543258666992	-792.2660522460938	-0.0	-0.0	-0.0	-0.0	-0.0	-0.0	221727.75	-9522.4541015625	-6625.97705078125
0.019	-0.0	-0.0	-0.0	5.910096168518066	-4.622457027435303	-78.43524169921875	-9.49712371826172	0.7948951721191406	-792.92333984375	-0.0	-0.0	-0.0	-0.0	-0.0	-0.0	221673.671875	-9682.828125	-6564.00048828125
0.0195	-0.0	-0.0	-0.0	6.51721715927124	-3.919314861297608	-79.14110565185547	-9.760679244995115	0.4440906643867492	-791.9151000976562	-0.0	-0.0	-0.0	-0.0	-0.0	-0.0	221499.90625	-9471.6181640625	-6647.40576171875
0.02	-0.0	-0.0	-0.0	6.596845626831055	-4.719183444976807	-79.7718276977539	-9.83228874206543	0.3581348657608032	-792.5167236328125	-0.0	-0.0	-0.0	-0.0	-0.0	-0.0	221165.921875	-9473.8271484375	-6680.49609375
0.0205	-0.0	-0.0	-0.0	6.51923942565918	-4.198283672332764	-78.04369354248047	-9.393903732299805	0.6112035512924194	-792.5370483398438	-0.0	-0.0	-0.0	-0.0	-0.0	-0.0	220641.59375	-9341.0234375	-6620.0283203125
0.021	-0.0	-0.0	-0.0	6.958419799804688	-4.371883392333984	-80.51612091064453	-9.043863296508787	0.5276221036911011	-789.1008911132812	-0.0	-0.0	-0.0	-0.0	-0.0	-0.0	221084.96875	-9608.732421875	-6500.39697265625
0.021500000000000002	-0.0	-0.0	-0.0	6.788692951202393	-4.463034629821777	-79.4999008178711	-8.522964477539062	0.964838445186615	-790.479248046875	-0.0	-0.0	-0.0	-0.0	-0.0	-0.0	220748.734375	-9813.689453125	-6386.58544921875
0.022	-0.0	-0.0	-0.0	6.960534572601318	-4.813041687011719	-78.38919830322266	-8.857969284057617	0.7927199602127075	-790.1215209960938	-0.0	-0.0	-0.0	-0.0	-0.0	-0.0	221210.1875	-9547.0986328125	-6441.73388671875
0.0225	-0.0	-0.0	-0.0	7.226051330566406	-4.549793243408203	-78.81658172607422	-8.6786527633667	0.971538543701172	-792.557373046875	-0.0	-0.0	-0.0	-0.0	-0.0	-0.0	221337.3125	-10224.62890625	-6411.92431640625
0.023	-0.0	-0.0	-0.0	7.497678279876709	-4.636776924133301	-78.41385650634766	-8.336745262145996	1.4069688320159912	-791.5430297851562	-0.0	-0.0	-0.0	-0.0	-0.0	-0.0	221567.34375	-10095.111328125	-6383.34033203125
